<svg xmlns="http://www.w3.org/2000/svg" viewBox="0 0 123.441 22.986"><defs><style>.cls-1{fill:#1d262d;}</style></defs><title>Asset 2</title><g id="Layer_2" data-name="Layer 2"><g id="OBJECTS"><path class="cls-1" d="M61.536.186C80.294-.245,99.63.174,118.968.424a13.739,13.739,0,0,1,3.207.6,1.474,1.474,0,0,1,.71,2.619,4.936,4.936,0,0,1-3.641,1.486c-2.569-.033-5.141.01-7.709-.065q-21.58-.631-43.169-.51c-15.034.087-30.068.227-45.1.267A190.277,190.277,0,0,1,4.009,4.166C3.116,4.077,2.227,3.943,1.34,3.8A1.473,1.473,0,0,1,.134,2.955C-.11,2.4-.066,1.905.656,1.825c1.276-.142,2.557-.293,3.838-.326C23.313,1.015,42.128.365,61.536.186Z"/><path class="cls-1" d="M56.381,11.308c-9.719.084-23.535.128-37.349.439-1.734.039-3.47-.014-5.2-.038a1.906,1.906,0,0,1-1.294-.249A.883.883,0,0,1,12.267,11a.345.345,0,0,1,.316-.4,12.306,12.306,0,0,1,1.338-.136c16.628-.813,33.27-1.012,49.914-1.09,11.889-.056,23.773.234,35.653.65,2.311.081,4.623.175,6.931.308,1.588.091,2.454.651,2.124,1.336-.441.915-1.415.6-2.2.567C91.061,11.589,75.773,11.24,56.381,11.308Z"/><path class="cls-1" d="M67.786,19.53c0,.192.016.385.008.577-.079,1.905-.685,2.7-2.176,2.854a3.143,3.143,0,0,1-3.578-2.221,7.246,7.246,0,0,1,0-3.989c.364-1.517.917-2.108,2.03-2.219a3.11,3.11,0,0,1,3.2,1.979A9.009,9.009,0,0,1,67.786,19.53Z"/><path class="cls-1" d="M57.346,17.59c-1.025-.076-1.71-.666-1.681-1.449A1.275,1.275,0,0,1,57.17,14.83,1.926,1.926,0,0,1,58.9,16.567C58.867,17.228,58.217,17.655,57.346,17.59Z"/><path class="cls-1" d="M71.542,14.713a1.558,1.558,0,0,1,1.722,1.379,1.091,1.091,0,0,1-1.234,1.293A1.423,1.423,0,0,1,70.441,15.9C70.4,15.129,70.75,14.717,71.542,14.713Z"/></g></g></svg>