<svg xmlns="http://www.w3.org/2000/svg" viewBox="0 0 189.037 25.772"><defs><style>.cls-1{fill:#1d262d;}</style></defs><title>Asset 1</title><g id="Layer_2" data-name="Layer 2"><g id="OBJECTS"><path class="cls-1" d="M36.142,16.563c-10.359.025-18.276-1.249-25.609-5.168A36.047,36.047,0,0,1,3.969,7.024,11.816,11.816,0,0,1,.259,1.951C.034,1.3-.323.509.606.124c.857-.355,1.349.085,1.8.9A13.341,13.341,0,0,0,6.5,5.311,42.142,42.142,0,0,0,29.62,13.389a102.658,102.658,0,0,0,21.667-1.719A128.358,128.358,0,0,1,66.774,9.824,70.332,70.332,0,0,1,84.58,11.33c2.072.441,4.139.909,6.209,1.365a5.26,5.26,0,0,1,.936.215c.321.137.83.205.68.74-.11.392-.516.32-.81.288-1.212-.135-2.429-.251-3.628-.464-11.3-2.014-22.514-1.277-33.708.874C47.566,15.634,40.828,16.6,36.142,16.563Z"/><path class="cls-1" d="M82.621,19.125a.854.854,0,0,1-1.062.034c-5.226-2.673-10.706-2.285-16.2-1.265-6.76,1.255-13.319,3.344-19.987,4.981-4.611,1.132-9.186,2.475-13.99,2.545A28.773,28.773,0,0,1,16.7,22.181a8.392,8.392,0,0,1-2.48-1.8c-.368-.438-.244-.861.406-.93a5.084,5.084,0,0,1,2.4.625,32.369,32.369,0,0,0,13.154,2.49,50.335,50.335,0,0,0,9.481-1.618c7-1.632,13.973-3.411,21.067-4.608,4.758-.8,9.541-1.394,14.373-.572a25.08,25.08,0,0,1,6.681,2.4C82.167,18.356,82.584,18.59,82.621,19.125Z"/><path class="cls-1" d="M152.81,16.88c10.359.082,18.283-1.149,25.637-5.029a36.038,36.038,0,0,0,6.587-4.336,11.815,11.815,0,0,0,3.737-5.053c.228-.652.59-1.438-.336-1.828-.855-.36-1.349.077-1.8.889a13.342,13.342,0,0,1-4.117,4.266,42.142,42.142,0,0,1-23.167,7.952A102.639,102.639,0,0,1,137.693,11.9a128.37,128.37,0,0,0-15.477-1.93A70.337,70.337,0,0,0,104.4,11.383c-2.075.43-4.144.887-6.216,1.331a5.26,5.26,0,0,0-.937.21c-.322.135-.831.2-.684.736.108.393.514.323.808.292,1.212-.128,2.43-.237,3.631-.445,11.308-1.953,22.521-1.155,33.7,1.057C141.392,15.889,148.124,16.892,152.81,16.88Z"/><path class="cls-1" d="M106.318,19.189a.853.853,0,0,0,1.061.039c5.24-2.645,10.718-2.227,16.209-1.176,6.753,1.292,13.3,3.416,19.959,5.089,4.6,1.157,9.173,2.525,13.976,2.621a28.774,28.774,0,0,0,14.7-3.16,8.393,8.393,0,0,0,2.49-1.787c.371-.436.249-.86-.4-.932a5.084,5.084,0,0,0-2.4.612,32.369,32.369,0,0,1-13.167,2.419,50.334,50.334,0,0,1-9.472-1.67c-6.993-1.67-13.954-3.486-21.041-4.722-4.753-.829-9.533-1.445-14.37-.65a25.078,25.078,0,0,0-6.694,2.363C106.776,18.423,106.358,18.655,106.318,19.189Z"/></g></g></svg>